<svg width="16" height="16" viewBox="0 0 16 16" fill="none" xmlns="http://www.w3.org/2000/svg">
<path fill-rule="evenodd" clip-rule="evenodd" d="M10.9886 0.0461823C9.28511 0.315514 7.87771 1.59127 7.45663 3.24771C7.31482 3.80557 7.28509 4.49311 7.37853 5.05331C7.67941 6.85697 9.13186 8.30942 10.9355 8.6103C11.2877 8.66904 11.9666 8.67739 12.2888 8.62696C14.2313 8.3228 15.7172 6.79676 15.9617 4.85485C16.04 4.23265 15.9459 3.40756 15.7324 2.84304C15.4411 2.07316 14.9024 1.3541 14.2418 0.853427C13.9176 0.60773 13.2644 0.279593 12.8801 0.169359C12.2949 0.00156991 11.5696 -0.0456686 10.9886 0.0461823ZM12.3235 1.07452C14.436 1.52058 15.5805 3.80141 14.664 5.73872C14.4793 6.12917 14.3057 6.37733 14.008 6.67643C13.5792 7.10723 13.0528 7.40661 12.4403 7.56786C12.1987 7.63145 12.0914 7.64108 11.6452 7.63914C11.1938 7.63717 11.0918 7.62682 10.8286 7.55626C10.2318 7.39626 9.70432 7.08788 9.28236 6.65217C8.67998 6.03019 8.37761 5.32902 8.34081 4.46872C8.29995 3.51457 8.62537 2.67535 9.29956 1.99603C9.80936 1.48235 10.4316 1.16065 11.1398 1.04457C11.4614 0.991859 11.9962 1.0054 12.3235 1.07452ZM5.29876 2.19911C4.51818 2.43512 3.86847 2.83466 3.28757 3.43591C2.66659 4.07868 2.27186 4.81987 2.07497 5.71302C2.01404 5.98936 2.006 6.15199 1.98412 7.54813C1.95776 9.23071 1.94613 9.34511 1.73848 9.96493C1.51355 10.6363 1.19641 11.1313 0.592912 11.753C0.0517476 12.3105 0.000538619 12.405 7.14622e-06 12.8472C-0.000305485 13.113 0.00932354 13.1639 0.0915767 13.3314C0.208626 13.5698 0.418807 13.78 0.656876 13.8967L0.843767 13.9883L2.51931 13.9972L4.19486 14.006L4.24847 14.1988C4.31256 14.4293 4.48295 14.7774 4.62926 14.9767C4.78263 15.1857 5.13344 15.5069 5.35581 15.642C5.8015 15.9127 6.24296 16.0223 6.78213 15.9963C7.82269 15.9459 8.71209 15.2642 9.03588 14.2688L9.12136 14.006L10.7819 13.9972L12.4424 13.9883L12.6369 13.8985C13.08 13.6938 13.3752 13.1922 13.3215 12.7352C13.2789 12.3732 13.1994 12.2388 12.7869 11.8313C12.361 11.4106 12.1318 11.1192 11.9013 10.7057C11.8151 10.551 11.7069 10.3788 11.6609 10.3232C11.4485 10.0663 11.0043 10.136 10.8625 10.4484C10.77 10.6522 10.7846 10.7518 10.9556 11.0805C11.2037 11.5577 11.4762 11.9272 11.9031 12.3657C12.3203 12.7943 12.3781 12.8979 12.2412 12.9712C12.2002 12.9931 10.4012 13.0035 6.64513 13.0035C1.15118 13.0035 1.10903 13.0031 1.04698 12.941C1.01259 12.9066 0.984451 12.8582 0.984451 12.8334C0.984451 12.8087 1.11976 12.6575 1.28514 12.4974C2.10586 11.703 2.63814 10.741 2.88071 9.61366C2.9594 9.24797 2.96265 9.1891 2.98601 7.70445C3.01171 6.0707 3.0194 5.98557 3.18593 5.48946C3.43385 4.7509 3.95573 4.0633 4.58311 3.64866C4.94086 3.41218 5.12156 3.32596 5.56246 3.18134C6.05054 3.02127 6.17412 2.90732 6.17412 2.61745C6.17412 2.33742 5.956 2.1234 5.67391 2.12662C5.59654 2.12752 5.42772 2.16013 5.29876 2.19911ZM10.7704 2.7258C10.5912 2.8174 10.5144 2.92739 10.496 3.11906C10.4844 3.24024 10.4961 3.30148 10.5489 3.39549C10.6542 3.58276 10.7812 3.65235 11.0608 3.67598L11.3013 3.6963L11.302 4.74687C11.3024 5.32467 11.3156 5.85258 11.3312 5.92005C11.4417 6.39665 12.0364 6.489 12.261 6.06439L12.333 5.92824V4.49998V3.07173L12.261 2.93558C12.2117 2.84254 12.1459 2.77667 12.0528 2.72746C11.927 2.6609 11.8785 2.65546 11.4124 2.65546C10.9511 2.65546 10.8964 2.66146 10.7704 2.7258ZM8.04991 14.0199C8.04991 14.0953 7.87893 14.3634 7.72774 14.525C7.50249 14.7658 7.20471 14.9232 6.86769 14.9796C6.44495 15.0503 5.94037 14.8888 5.62561 14.582C5.47202 14.4323 5.2684 14.1256 5.26777 14.043C5.26756 14.0124 5.56643 14.004 6.6587 14.004C7.42386 14.004 8.04991 14.0112 8.04991 14.0199Z" fill="white"/>
</svg>
