<svg width="13" height="17" viewBox="0 0 13 17" fill="none" xmlns="http://www.w3.org/2000/svg">
<path fill-rule="evenodd" clip-rule="evenodd" d="M0.992758 0.559174C0.661195 0.665153 0.303693 0.959462 0.157304 1.24693C-0.0094622 1.5744 0.000101246 1.13226 0.000101246 8.50212C0.000101246 15.0928 0.00197644 15.3128 0.0593256 15.4971C0.201308 15.9534 0.570968 16.3167 1.02932 16.4505C1.18106 16.4948 1.71792 16.5 6.09443 16.5C10.4709 16.5 11.0078 16.4948 11.1595 16.4505C11.6179 16.3167 11.9876 15.9534 12.1295 15.4971C12.1867 15.3135 12.1888 15.12 12.1888 9.96738C12.1888 6.32878 12.1784 4.5999 12.1561 4.53996C12.1124 4.42232 8.2963 0.599022 8.16594 0.542267C8.08165 0.505576 7.50809 0.498762 4.61873 0.500169C1.36454 0.501763 1.16209 0.505044 0.992758 0.559174ZM7.50081 2.71466C7.50081 3.88174 7.50597 4.00985 7.56004 4.18349C7.70202 4.63978 8.07168 5.0031 8.53004 5.13689C8.67271 5.17852 8.9032 5.18643 9.97577 5.18643H11.2517L11.2436 10.2159C11.2355 15.2406 11.2355 15.2454 11.1711 15.3316C11.1357 15.3791 11.0678 15.4469 11.0204 15.4823C10.9341 15.5468 10.9337 15.5468 6.09443 15.5468C1.25519 15.5468 1.25478 15.5468 1.16849 15.4823C1.12102 15.4469 1.0532 15.3791 1.01776 15.3316L0.953317 15.2453L0.944409 8.5829C0.939503 4.91859 0.943566 1.87521 0.953473 1.81983C0.975819 1.69453 1.10721 1.53483 1.23303 1.48004C1.3101 1.44648 1.91931 1.43829 4.41458 1.43729L7.50081 1.43607V2.71466ZM9.7434 4.24227C9.29208 4.24727 8.87754 4.24321 8.82216 4.23324C8.69349 4.21005 8.53572 4.07748 8.48103 3.94659C8.4485 3.86871 8.4384 3.63894 8.4384 2.97647V2.10835L9.50119 3.1708L10.564 4.23321L9.7434 4.24227ZM3.06511 7.17886C2.89413 7.26603 2.82849 7.38088 2.82849 7.5929C2.82849 7.80492 2.89413 7.91978 3.06511 8.00694C3.16487 8.05782 3.37411 8.0616 6.09443 8.0616C8.81475 8.0616 9.02399 8.05782 9.12375 8.00694C9.29473 7.91978 9.36036 7.80492 9.36036 7.5929C9.36036 7.38088 9.29473 7.26603 9.12375 7.17886C9.02399 7.12799 8.81475 7.1242 6.09443 7.1242C3.37411 7.1242 3.16487 7.12799 3.06511 7.17886ZM3.06511 9.05404C2.89413 9.14121 2.82849 9.25606 2.82849 9.46808C2.82849 9.6801 2.89413 9.79496 3.06511 9.88212C3.16487 9.933 3.37411 9.93678 6.09443 9.93678C8.81475 9.93678 9.02399 9.933 9.12375 9.88212C9.29473 9.79496 9.36036 9.6801 9.36036 9.46808C9.36036 9.25606 9.29473 9.14121 9.12375 9.05404C9.02399 9.00316 8.81475 8.99938 6.09443 8.99938C3.37411 8.99938 3.16487 9.00316 3.06511 9.05404ZM3.06511 10.9292C2.89413 11.0164 2.82849 11.1312 2.82849 11.3433C2.82849 11.5553 2.89413 11.6701 3.06511 11.7573C3.16487 11.8082 3.37411 11.812 6.09443 11.812C8.81475 11.812 9.02399 11.8082 9.12375 11.7573C9.29473 11.6701 9.36036 11.5553 9.36036 11.3433C9.36036 11.1312 9.29473 11.0164 9.12375 10.9292C9.02399 10.8783 8.81475 10.8746 6.09443 10.8746C3.37411 10.8746 3.16487 10.8783 3.06511 10.9292ZM3.06511 12.8044C2.89413 12.8916 2.82849 13.0064 2.82849 13.2184C2.82849 13.4305 2.89413 13.5453 3.06511 13.6325C3.16381 13.6828 3.32914 13.6871 5.15684 13.6871C6.98455 13.6871 7.14987 13.6828 7.24857 13.6325C7.41955 13.5453 7.48519 13.4305 7.48519 13.2184C7.48519 13.0064 7.41955 12.8916 7.24857 12.8044C7.14987 12.7541 6.98455 12.7497 5.15684 12.7497C3.32914 12.7497 3.16381 12.7541 3.06511 12.8044Z" fill="#82859E"/>
</svg>
