<svg width="16" height="17" viewBox="0 0 16 17" fill="none" xmlns="http://www.w3.org/2000/svg">
<path fill-rule="evenodd" clip-rule="evenodd" d="M14.9529 1.04513C14.2944 1.3909 12.7326 2.20663 6.38832 5.51842C3.08753 7.24149 0.327091 8.68565 0.253979 8.72773C-0.0560324 8.90605 -0.0889778 9.35275 0.192371 9.5628C0.2366 9.59584 1.51516 10.0474 3.03361 10.5664L5.79443 11.5099L5.81006 13.6487C5.82425 15.5915 5.8306 15.7965 5.87926 15.8854C6.0182 16.1392 6.29421 16.2369 6.53823 16.1188C6.66045 16.0596 6.8053 15.8752 7.90641 14.3769C8.58376 13.4552 9.15289 12.6953 9.17121 12.6883C9.18949 12.6813 10.1955 13.0145 11.4066 13.4287C13.3581 14.0961 13.6239 14.1796 13.7415 14.1622C13.8887 14.1406 14.0396 14.0305 14.1108 13.8928C14.1566 13.8043 16 1.5204 16 1.30392C16 1.05532 15.7599 0.830333 15.4956 0.831302C15.3882 0.831677 15.273 0.877063 14.9529 1.04513ZM14.0144 7.8989C13.6086 10.6388 13.2669 12.904 13.2551 12.9326C13.2366 12.9777 12.8334 12.8481 10.2413 11.9637C8.59541 11.4021 7.25212 10.9341 7.25619 10.9237C7.27038 10.8872 14.7317 2.89658 14.7419 2.90686C14.7476 2.91258 14.4203 5.159 14.0144 7.8989ZM9.62657 6.8906L6.18618 10.5801L5.75589 10.4298C5.51921 10.3472 4.52691 10.0072 3.55074 9.67433L1.77594 9.06906L1.94098 8.98407C2.03178 8.93734 4.56757 7.6128 7.57611 6.04067C10.5846 4.46855 13.0509 3.18652 13.0565 3.19168C13.0623 3.19687 11.5188 4.86136 9.62657 6.8906ZM8.14865 12.3189C8.16062 12.3291 6.87456 14.084 6.85515 14.084C6.84768 14.084 6.84156 13.585 6.84156 12.9751V11.8662L7.49015 12.0883C7.84686 12.2105 8.14321 12.3143 8.14865 12.3189Z" fill="#82859E"/>
</svg>
