<svg width="41" height="40" viewBox="0 0 41 40" fill="none" xmlns="http://www.w3.org/2000/svg">
<ellipse cx="20.5" cy="20" rx="20.5" ry="20" fill="#272A2D"/>
<path fill-rule="evenodd" clip-rule="evenodd" d="M21.7414 13.1184C21.1495 13.2786 20.7674 13.4877 20.3329 13.8892C19.8817 14.3061 19.646 14.6828 19.4215 15.3458C19.2888 15.7375 19.2551 16.0355 19.2247 17.0812L19.1881 18.3437H18.2346C17.5253 18.3437 17.245 18.3704 17.1405 18.4476C17.0102 18.544 17 18.6496 17 19.9077C17 20.9221 17.0237 21.2879 17.094 21.3591C17.1595 21.4253 17.4945 21.4619 18.1979 21.4795L19.2078 21.5049V24.6083C19.2078 27.6449 19.211 27.715 19.357 27.8627C19.4986 28.0058 19.5737 28.0124 20.8301 27.9907C21.819 27.9738 22.1841 27.9426 22.2734 27.8676C22.3811 27.777 22.3929 27.4538 22.3929 24.5924V21.4176H23.5728C24.394 21.4176 24.7791 21.3909 24.8396 21.3298C24.9621 21.206 24.9621 18.5554 24.8396 18.4315C24.7791 18.3704 24.3928 18.3437 23.5674 18.3437H22.3822L22.4056 17.2849C22.4255 16.3869 22.4487 16.2062 22.5581 16.0956C22.6661 15.9865 22.8659 15.9579 23.7777 15.9213C24.5973 15.8882 24.8842 15.8519 24.9325 15.7749C25.0342 15.6123 25.0158 13.1937 24.912 13.0888C24.7797 12.955 22.258 12.9785 21.7414 13.1184Z" fill="#707882"/>
</svg>
