<svg width="160" height="80" viewBox="0 0 160 80" fill="none" xmlns="http://www.w3.org/2000/svg">
<path d="M131 54C125.472 67.5177 112.554 77 97.5 77C82.4457 77 69.5277 67.5177 64 54" stroke="url(#paint0_linear_4_23)" stroke-width="5.05" stroke-linecap="round"/>
<path d="M131 26C125.472 12.4823 112.554 3 97.5 3C82.4457 3 69.5277 12.4823 64 26" stroke="url(#paint1_linear_4_23)" stroke-width="5.05" stroke-linecap="round"/>
<path d="M6.55259 48.8781C5.56263 48.8781 4.6591 48.7231 3.84199 48.413C3.04059 48.0875 2.35705 47.6224 1.79136 47.0178C1.22567 46.4132 0.785683 45.6846 0.47141 44.832C0.157137 43.9639 0 42.9795 0 41.8789V31.8567H3.18202V42.0649C3.18202 42.623 3.25273 43.1345 3.39415 43.5996C3.53557 44.0647 3.74771 44.4677 4.03055 44.8088C4.3134 45.1498 4.66696 45.4211 5.09122 45.6226C5.51549 45.8087 6.00262 45.9017 6.55259 45.9017C7.11829 45.9017 7.61327 45.8087 8.03753 45.6226C8.4618 45.4211 8.81536 45.1498 9.09821 44.8088C9.38105 44.4677 9.59319 44.0647 9.73461 43.5996C9.87603 43.1345 9.94674 42.623 9.94674 42.0649V31.8567H13.1288V41.8789C13.1288 42.9175 12.9716 43.8709 12.6573 44.739C12.3588 45.5916 11.9188 46.328 11.3374 46.9481C10.7717 47.5527 10.0803 48.0255 9.2632 48.3665C8.4618 48.7076 7.55827 48.8781 6.55259 48.8781Z" fill="white"/>
<path d="M16.1445 31.8567H22.2964C23.1449 31.8567 23.9149 31.9885 24.6063 32.252C25.2977 32.5156 25.887 32.8799 26.3741 33.3449C26.8769 33.81 27.2619 34.3681 27.529 35.0192C27.7962 35.6547 27.9297 36.3523 27.9297 37.112C27.9297 37.67 27.8354 38.1971 27.6469 38.6932C27.4583 39.1737 27.199 39.6155 26.8691 40.0186C26.5391 40.4062 26.1541 40.755 25.7141 41.065C25.2741 41.3595 24.8106 41.5921 24.3234 41.7626L24.2999 41.9254L28.8254 48.32V48.506H25.172L20.8114 42.2509H19.3265V48.506H16.1445V31.8567ZM22.2728 39.3675C22.9956 39.3675 23.5849 39.1505 24.0406 38.7164C24.512 38.2824 24.7477 37.732 24.7477 37.0654C24.7477 36.7709 24.6927 36.4841 24.5827 36.2051C24.4884 35.926 24.3392 35.678 24.1349 35.461C23.9306 35.2439 23.6713 35.0734 23.3571 34.9494C23.0585 34.8099 22.7128 34.7401 22.32 34.7401H19.3265V39.3675H22.2728Z" fill="white"/>
<path d="M45.3366 44.8631C44.6273 46.098 43.6676 47.0962 42.4576 47.8577C41.2684 48.6192 39.808 49 38.0765 49C36.9082 49 35.8233 48.8045 34.8219 48.4134C33.8414 48.0018 32.986 47.4358 32.2558 46.7154C31.5256 45.9951 30.9519 45.1512 30.5347 44.1839C30.1383 43.196 29.9401 42.1154 29.9401 40.9423C29.9401 39.8515 30.1383 38.8224 30.5347 37.855C30.9311 36.8671 31.4839 36.013 32.1932 35.2926C32.9026 34.5517 33.7371 33.9651 34.6967 33.5329C35.6773 33.1007 36.7517 32.8846 37.92 32.8846C39.1509 32.8846 40.2461 33.0904 41.2058 33.502C42.1655 33.8931 42.9687 34.4488 43.6154 35.1691C44.2622 35.8689 44.7524 36.7025 45.0862 37.6698C45.42 38.6371 45.5869 39.6868 45.5869 40.8188C45.5869 40.9629 45.5869 41.0864 45.5869 41.1893C45.5661 41.3128 45.5556 41.426 45.5556 41.5289C45.5348 41.6318 45.5243 41.745 45.5243 41.8685H33.977C34.0604 42.4859 34.2273 43.021 34.4777 43.4738C34.7489 43.906 35.0723 44.2765 35.4478 44.5852C35.8442 44.8734 36.2718 45.0895 36.7308 45.2336C37.1898 45.357 37.6592 45.4188 38.139 45.4188C39.0778 45.4188 39.8498 45.213 40.4548 44.8013C41.0806 44.3691 41.5709 43.834 41.9256 43.196L45.3366 44.8631ZM41.6126 38.9973C41.5918 38.7298 41.4979 38.4313 41.331 38.102C41.185 37.7727 40.9555 37.464 40.6425 37.1758C40.3505 36.8877 39.9749 36.651 39.516 36.4658C39.0778 36.2805 38.5459 36.1879 37.92 36.1879C37.0438 36.1879 36.2719 36.4349 35.6043 36.9289C34.9367 37.4228 34.4672 38.1123 34.196 38.9973H41.6126Z" fill="white"/>
<path d="M48.2051 48.506V26.4013H52.3046V48.506H48.2051Z" fill="white"/>
<path d="M62.9219 32.8846C64.1111 32.8846 65.1959 33.0904 66.1765 33.502C67.1779 33.8931 68.0332 34.4488 68.7425 35.1691C69.4727 35.8689 70.036 36.7128 70.4324 37.7007C70.8496 38.6886 71.0583 39.7691 71.0583 40.9423C71.0583 42.1154 70.8496 43.196 70.4324 44.1839C70.036 45.1718 69.4727 46.026 68.7425 46.7463C68.0332 47.4461 67.1779 48.0018 66.1765 48.4134C65.1959 48.8045 64.1111 49 62.9219 49C61.7328 49 60.6375 48.8045 59.6361 48.4134C58.6555 48.0018 57.8002 47.4461 57.07 46.7463C56.3607 46.026 55.7974 45.1718 55.3801 44.1839C54.9838 43.196 54.7856 42.1154 54.7856 40.9423C54.7856 39.7691 54.9838 38.6886 55.3801 37.7007C55.7974 36.7128 56.3607 35.8689 57.07 35.1691C57.8002 34.4488 58.6555 33.8931 59.6361 33.502C60.6375 33.0904 61.7328 32.8846 62.9219 32.8846ZM62.9219 45.2644C63.4435 45.2644 63.9442 45.1718 64.424 44.9866C64.9247 44.7808 65.3628 44.4926 65.7383 44.1221C66.1139 43.7517 66.4059 43.2989 66.6146 42.7638C66.8441 42.2286 66.9588 41.6215 66.9588 40.9423C66.9588 40.2631 66.8441 39.6559 66.6146 39.1208C66.4059 38.5857 66.1139 38.1329 65.7383 37.7624C65.3628 37.3919 64.9247 37.1141 64.424 36.9289C63.9442 36.723 63.4435 36.6201 62.9219 36.6201C62.3795 36.6201 61.8684 36.723 61.3885 36.9289C60.9087 37.1141 60.481 37.3919 60.1055 37.7624C59.73 38.1329 59.4275 38.5857 59.198 39.1208C58.9893 39.6559 58.885 40.2631 58.885 40.9423C58.885 41.6215 58.9893 42.2286 59.198 42.7638C59.4275 43.2989 59.73 43.7517 60.1055 44.1221C60.481 44.4926 60.9087 44.7808 61.3885 44.9866C61.8684 45.1718 62.3795 45.2644 62.9219 45.2644Z" fill="white"/>
<path d="M88.2439 44.647C87.5763 45.923 86.6375 46.9727 85.4274 47.796C84.2383 48.5987 82.7466 49 80.9524 49C79.7633 49 78.668 48.8045 77.6666 48.4134C76.6861 48.0018 75.8307 47.4358 75.1005 46.7154C74.3912 45.9951 73.8279 45.1512 73.4107 44.1839C73.0143 43.196 72.8161 42.1154 72.8161 40.9423C72.8161 39.7691 73.0143 38.6886 73.4107 37.7007C73.8279 36.7128 74.3912 35.8689 75.1005 35.1691C75.8307 34.4488 76.6861 33.8931 77.6666 33.502C78.668 33.0904 79.7633 32.8846 80.9524 32.8846C82.7258 32.8846 84.2174 33.2859 85.4274 34.0886C86.6375 34.8913 87.5241 35.9306 88.0874 37.2067L84.3322 38.7503C83.9775 38.0506 83.5185 37.5257 82.9552 37.1758C82.4128 36.8054 81.7244 36.6201 80.8899 36.6201C80.3474 36.6201 79.8363 36.723 79.3565 36.9289C78.8766 37.1347 78.449 37.4228 78.0734 37.7933C77.7188 38.1638 77.4371 38.6166 77.2285 39.1517C77.0199 39.6868 76.9156 40.2837 76.9156 40.9423C76.9156 41.6009 77.0199 42.1978 77.2285 42.7329C77.4371 43.268 77.7188 43.7208 78.0734 44.0913C78.449 44.4617 78.8766 44.7499 79.3565 44.9557C79.8363 45.1615 80.3474 45.2644 80.8899 45.2644C81.7452 45.2644 82.465 45.0792 83.0491 44.7087C83.6541 44.3177 84.134 43.762 84.4886 43.0416L88.2439 44.647Z" fill="white"/>
<path d="M100.043 46.9007H99.7925C99.3126 47.477 98.7285 47.9709 98.04 48.3826C97.3724 48.7942 96.5066 49 95.4426 49C94.6499 49 93.8988 48.8662 93.1895 48.5987C92.501 48.3517 91.896 48.0018 91.3745 47.549C90.8529 47.0962 90.4461 46.5508 90.154 45.9128C89.8619 45.2747 89.7159 44.5749 89.7159 43.8134C89.7159 43.0313 89.8724 42.3315 90.1853 41.7141C90.4982 41.0761 90.9363 40.5306 91.4996 40.0779C92.0629 39.6251 92.7201 39.2855 93.4711 39.0591C94.243 38.8121 95.0775 38.6886 95.9746 38.6886C96.976 38.6886 97.8001 38.7709 98.4468 38.9356C99.0936 39.0796 99.6256 39.234 100.043 39.3987V38.9356C100.043 38.1329 99.7194 37.4743 99.0727 36.9597C98.426 36.4246 97.6228 36.157 96.6631 36.157C95.2444 36.157 94.0449 36.7436 93.0643 37.9168L90.0914 35.9101C91.7187 33.8931 93.9405 32.8846 96.757 32.8846C99.1353 32.8846 100.95 33.4403 102.202 34.5517C103.454 35.6425 104.08 37.2685 104.08 39.4295V48.506H100.043V46.9007ZM100.043 42.3624C99.563 42.136 99.0623 41.9611 98.5407 41.8376C98.04 41.6935 97.4872 41.6215 96.8821 41.6215C95.9016 41.6215 95.1401 41.8376 94.5977 42.2698C94.0761 42.6814 93.8154 43.196 93.8154 43.8134C93.8154 44.4309 94.0657 44.9248 94.5664 45.2953C95.088 45.6658 95.6826 45.851 96.3502 45.851C96.8926 45.851 97.3933 45.7584 97.8523 45.5732C98.3112 45.3673 98.6972 45.1101 99.0101 44.8013C99.3439 44.472 99.5943 44.1016 99.7612 43.6899C99.9489 43.2577 100.043 42.8152 100.043 42.3624Z" fill="white"/>
<path d="M108.723 36.8362H106.032V33.3785H108.723V28.7477H112.823V33.3785H116.578V36.8362H112.823V42.702C112.823 43.0519 112.854 43.3812 112.917 43.6899C113 43.9781 113.146 44.2251 113.355 44.4309C113.647 44.7602 114.064 44.9248 114.607 44.9248C114.961 44.9248 115.243 44.894 115.452 44.8322C115.66 44.7499 115.858 44.647 116.046 44.5235L117.204 48.0738C116.724 48.3002 116.203 48.4649 115.639 48.5678C115.097 48.6913 114.492 48.753 113.824 48.753C113.052 48.753 112.353 48.6398 111.728 48.4134C111.123 48.1664 110.611 47.8371 110.194 47.4255C109.214 46.4993 108.723 45.1821 108.723 43.4738V36.8362Z" fill="white"/>
<path d="M122.031 31.1866C121.676 31.1866 121.332 31.1248 120.998 31.0013C120.685 30.8573 120.404 30.672 120.153 30.4456C119.924 30.1987 119.736 29.9208 119.59 29.6121C119.465 29.3034 119.402 28.9638 119.402 28.5933C119.402 28.2228 119.465 27.8832 119.59 27.5745C119.736 27.2658 119.924 26.9982 120.153 26.7718C120.404 26.5248 120.685 26.3396 120.998 26.2161C121.332 26.072 121.676 26 122.031 26C122.761 26 123.387 26.2573 123.909 26.7718C124.43 27.2658 124.691 27.8729 124.691 28.5933C124.691 29.3136 124.43 29.9311 123.909 30.4456C123.387 30.9396 122.761 31.1866 122.031 31.1866ZM119.997 48.506V33.3785H124.096V48.506H119.997Z" fill="white"/>
<path d="M134.952 32.8846C136.142 32.8846 137.226 33.0904 138.207 33.502C139.208 33.8931 140.064 34.4488 140.773 35.1691C141.503 35.8689 142.066 36.7128 142.463 37.7007C142.88 38.6886 143.089 39.7691 143.089 40.9423C143.089 42.1154 142.88 43.196 142.463 44.1839C142.066 45.1718 141.503 46.026 140.773 46.7463C140.064 47.4461 139.208 48.0018 138.207 48.4134C137.226 48.8045 136.142 49 134.952 49C133.763 49 132.668 48.8045 131.667 48.4134C130.686 48.0018 129.831 47.4461 129.1 46.7463C128.391 46.026 127.828 45.1718 127.411 44.1839C127.014 43.196 126.816 42.1154 126.816 40.9423C126.816 39.7691 127.014 38.6886 127.411 37.7007C127.828 36.7128 128.391 35.8689 129.1 35.1691C129.831 34.4488 130.686 33.8931 131.667 33.502C132.668 33.0904 133.763 32.8846 134.952 32.8846ZM134.952 45.2644C135.474 45.2644 135.975 45.1718 136.454 44.9866C136.955 44.7808 137.393 44.4926 137.769 44.1221C138.144 43.7517 138.436 43.2989 138.645 42.7638C138.874 42.2286 138.989 41.6215 138.989 40.9423C138.989 40.2631 138.874 39.6559 138.645 39.1208C138.436 38.5857 138.144 38.1329 137.769 37.7624C137.393 37.3919 136.955 37.1141 136.454 36.9289C135.975 36.723 135.474 36.6201 134.952 36.6201C134.41 36.6201 133.899 36.723 133.419 36.9289C132.939 37.1141 132.511 37.3919 132.136 37.7624C131.76 38.1329 131.458 38.5857 131.228 39.1208C131.02 39.6559 130.915 40.2631 130.915 40.9423C130.915 41.6215 131.02 42.2286 131.228 42.7638C131.458 43.2989 131.76 43.7517 132.136 44.1221C132.511 44.4926 132.939 44.7808 133.419 44.9866C133.899 45.1718 134.41 45.2644 134.952 45.2644Z" fill="white"/>
<path d="M149.266 35.3544H149.517C149.996 34.5928 150.643 33.996 151.457 33.5638C152.27 33.111 153.199 32.8846 154.242 32.8846C155.202 32.8846 156.047 33.0389 156.777 33.3477C157.507 33.6564 158.102 34.0989 158.56 34.6752C159.04 35.2309 159.395 35.9101 159.624 36.7128C159.875 37.4949 160 38.3696 160 39.3369V48.506H155.901V39.8309C155.901 38.74 155.65 37.9374 155.149 37.4228C154.67 36.8877 153.96 36.6201 153.022 36.6201C152.458 36.6201 151.958 36.7436 151.519 36.9906C151.102 37.217 150.737 37.536 150.424 37.9477C150.132 38.3387 149.903 38.8121 149.736 39.3678C149.59 39.9029 149.517 40.4792 149.517 41.0966V48.506H145.417V33.3785H149.266V35.3544Z" fill="white"/>
<defs>
<linearGradient id="paint0_linear_4_23" x1="51" y1="77" x2="131" y2="77" gradientUnits="userSpaceOnUse">
<stop stop-color="#95DC78"/>
<stop offset="1" stop-color="#95DC78" stop-opacity="0.33"/>
</linearGradient>
<linearGradient id="paint1_linear_4_23" x1="58" y1="26" x2="131" y2="26" gradientUnits="userSpaceOnUse">
<stop stop-color="#FFBB8A" stop-opacity="0.24"/>
<stop offset="1" stop-color="#FFBB8A"/>
</linearGradient>
</defs>
</svg>
