<svg width="16" height="17" viewBox="0 0 16 17" fill="none" xmlns="http://www.w3.org/2000/svg">
<path fill-rule="evenodd" clip-rule="evenodd" d="M7.09071 0.544878C5.25063 0.76896 3.62258 1.55539 2.33662 2.84135C1.11332 4.06466 0.350649 5.57708 0.0701008 7.33603C-0.00825134 7.82718 -0.0239468 8.83823 0.0383972 9.37759C0.188067 10.6723 0.603183 11.8307 1.29438 12.8823C2.40781 14.5764 4.11515 15.7895 6.05894 16.2679C6.70939 16.4279 7.08555 16.4775 7.79419 16.4966C8.92495 16.527 9.91401 16.3561 10.9313 15.9545C13.3339 15.006 15.1385 12.9514 15.7605 10.4563C15.9452 9.71545 15.9851 9.36759 15.9851 8.50215C15.9851 7.62396 15.9446 7.27984 15.7509 6.51474C15.5982 5.91168 15.4593 5.53684 15.1722 4.95348C14.0944 2.763 12.0754 1.19124 9.67014 0.670223C8.90791 0.505139 7.84228 0.453332 7.09071 0.544878ZM9.04148 1.69996C12.1507 2.18827 14.5299 4.70648 14.8435 7.84107C15.0453 9.85774 14.317 11.8932 12.8739 13.346C11.1499 15.0815 8.65497 15.7687 6.2798 15.1623C4.35567 14.671 2.69296 13.3125 1.82117 11.5193C0.882918 9.58945 0.882918 7.41485 1.82117 5.485C2.85313 3.3624 4.91336 1.92076 7.29394 1.6555C7.64712 1.61614 8.67407 1.64228 9.04148 1.69996ZM7.51192 4.49947C6.65418 4.62063 6.02952 5.06113 5.85515 5.66781C5.73065 6.10097 5.96414 6.45161 6.40549 6.49426C6.60897 6.5139 6.71443 6.44736 6.92594 6.16588C7.14858 5.86954 7.31695 5.75826 7.61157 5.71265C7.92126 5.66472 8.21122 5.70352 8.44402 5.82402C8.60682 5.90831 8.64872 5.94858 8.72579 6.09484C8.80405 6.24329 8.81421 6.29103 8.8007 6.44599C8.77059 6.79141 8.61389 7.00224 8.05995 7.44268C7.602 7.80677 7.43901 8.01509 7.28928 8.42755C7.13652 8.84842 7.12723 9.52442 7.27155 9.71952C7.3978 9.89023 7.73063 9.95476 8.03238 9.86703C8.30642 9.78736 8.34844 9.72064 8.37521 9.32269C8.40166 8.92999 8.4191 8.84783 8.51634 8.65848C8.6111 8.47395 8.73411 8.34207 9.07975 8.05439C9.57872 7.63906 9.86755 7.26315 10.0303 6.8173C10.4003 5.80341 9.83441 4.87297 8.66773 4.57704C8.34206 4.49441 7.80351 4.45826 7.51192 4.49947ZM7.41025 10.7088C7.0505 10.8881 6.88404 11.2868 6.99785 11.6965C7.04456 11.8647 7.27706 12.1073 7.47165 12.191C7.98113 12.4102 8.56646 12.0054 8.56646 11.4338C8.56646 10.8404 7.93751 10.4461 7.41025 10.7088Z" fill="#82859E"/>
</svg>
