<svg width="16" height="16" viewBox="0 0 16 16" fill="none" xmlns="http://www.w3.org/2000/svg">
<path fill-rule="evenodd" clip-rule="evenodd" d="M7.317 0.00669338C7.2654 0.0136673 7.09652 0.0349955 6.94172 0.0540096C4.40256 0.366209 2.09639 1.97874 0.887812 4.2871C0.457056 5.10987 0.210124 5.88478 0.0402485 6.94691C-0.0134162 7.28238 -0.0134162 8.70674 0.0402485 9.04221C0.210124 10.1043 0.457056 10.8793 0.887812 11.702C2.5578 14.8916 6.15436 16.579 9.67812 15.826C11.9963 15.3306 14.0067 13.7925 15.1038 11.6749C16.7077 8.57918 16.1202 4.80317 13.6505 2.33344C12.4199 1.10288 10.9297 0.350197 9.1603 0.0656119C8.86533 0.0181706 7.54379 -0.0240793 7.317 0.00669338ZM8.99011 1.00459C10.4861 1.21887 11.9 1.92867 12.9776 3.00628C15.4714 5.50006 15.7445 9.45264 13.6162 12.2505C13.3533 12.5962 12.8329 13.1638 12.8066 13.1337C12.7942 13.1194 12.7449 12.9951 12.6972 12.8575C12.4374 12.1091 11.8934 11.3059 11.2887 10.7779C10.9941 10.5206 10.4811 10.1785 10.177 10.0365C10.0402 9.97265 9.9283 9.91113 9.9283 9.89981C9.9283 9.88852 9.98356 9.84268 10.0511 9.79799C10.2519 9.66508 10.5753 9.34606 10.7665 9.09218C11.233 8.4726 11.4684 7.76836 11.4679 6.99382C11.4677 6.57795 11.4292 6.31432 11.3161 5.95343C10.9619 4.8235 10.0129 3.91486 8.87577 3.61702C7.9064 3.36311 6.89847 3.53536 6.05006 4.09987C5.27436 4.61603 4.72255 5.46153 4.54823 6.40101C4.45895 6.88211 4.51871 7.61591 4.68762 8.11249C4.9059 8.75422 5.43295 9.47062 5.92763 9.79799C5.99518 9.84268 6.05044 9.88833 6.05044 9.8994C6.05044 9.91048 5.92731 9.98028 5.7768 10.0545C5.2075 10.3352 4.65341 10.7583 4.24282 11.2259C3.848 11.6754 3.46797 12.3204 3.28155 12.8575C3.23379 12.9951 3.18457 13.1194 3.17216 13.1337C3.14585 13.1638 2.62547 12.5962 2.36253 12.2505C1.64353 11.3053 1.17143 10.175 0.995798 8.9781C0.92118 8.46966 0.92043 7.51596 0.994266 7.02509C1.22903 5.46432 1.91326 4.09409 3.00109 3.00628C4.19641 1.81093 5.72823 1.10776 7.489 0.946106C7.75191 0.921963 8.66037 0.957364 8.99011 1.00459ZM8.57499 4.52281C9.07574 4.64287 9.45745 4.86541 9.8231 5.25038C10.0978 5.53965 10.2691 5.8239 10.4026 6.21199C10.4994 6.49336 10.5048 6.53308 10.5057 6.96255C10.5067 7.47393 10.4674 7.67091 10.2887 8.0491C9.9612 8.74264 9.38812 9.23047 8.65546 9.4395C8.30295 9.54008 7.66945 9.54051 7.32328 9.44044C6.5873 9.22766 6.01729 8.74211 5.69001 8.0491C5.51138 7.67091 5.47207 7.47393 5.47307 6.96255C5.47392 6.53308 5.47936 6.49336 5.57615 6.21199C5.70721 5.83099 5.87834 5.54372 6.13847 5.26795C6.50427 4.88017 6.90069 4.64449 7.38914 4.52437C7.72324 4.44222 8.23605 4.44156 8.57499 4.52281ZM8.70471 10.5474C10.228 10.8168 11.4546 11.9312 11.8869 13.4385C11.9303 13.5899 11.9613 13.7448 11.9556 13.7826C11.9483 13.8322 11.8534 13.907 11.617 14.0496C10.816 14.533 9.83389 14.8735 8.86502 15.0039C8.42888 15.0626 7.45741 15.0544 7.0199 14.9883C6.02805 14.8386 5.06987 14.4934 4.27569 13.9998C3.97609 13.8136 3.97963 13.8251 4.09765 13.4161C4.45413 12.1805 5.40136 11.1574 6.58208 10.7326C7.2673 10.486 7.99756 10.4223 8.70471 10.5474Z" fill="white"/>
</svg>
