<svg width="12" height="12" viewBox="0 0 12 12" fill="none" xmlns="http://www.w3.org/2000/svg">
<path fill-rule="evenodd" clip-rule="evenodd" d="M1.10774 0.0424905C0.853388 0.109331 0.653314 0.23066 0.436576 0.44946C0.221642 0.666433 0.094735 0.892264 0.0384412 1.15787C-0.0128137 1.39982 -0.0128137 10.5421 0.0384412 10.7841C0.094735 11.0497 0.221642 11.2755 0.436576 11.4925C0.657509 11.7155 0.856248 11.8343 1.12026 11.9011C1.30015 11.9466 1.37304 11.9477 3.73426 11.9417L6.16321 11.9355L6.26354 11.865C6.39797 11.7705 6.47845 11.6127 6.47695 11.4464C6.47508 11.2394 6.36985 11.0795 6.17863 10.9933C6.09126 10.9539 5.93089 10.9504 3.70258 10.9395L1.31996 10.9277L1.22014 10.8574C1.16525 10.8188 1.09579 10.7407 1.06581 10.6838L1.01128 10.5805V5.97098V1.36143L1.06581 1.25813C1.09579 1.20132 1.16525 1.1232 1.22014 1.08453L1.31996 1.01423L3.70258 1.00251C5.93089 0.99154 6.09126 0.988071 6.17863 0.948651C6.36985 0.86243 6.47508 0.702595 6.47695 0.495583C6.47845 0.329303 6.39797 0.171483 6.26354 0.0769886L6.16321 0.00646905L3.722 0.00173493C1.37238 -0.00281169 1.2743 -0.00128834 1.10774 0.0424905ZM8.25025 2.54447C8.02255 2.66343 7.9198 2.92151 8.00797 3.15306C8.04397 3.24763 8.21559 3.42818 9.16527 4.37045L10.2803 5.47683L7.32054 5.47782C4.45518 5.4788 4.35802 5.48025 4.27383 5.52354C3.89478 5.71853 3.89478 6.22344 4.27383 6.41843C4.35802 6.46171 4.45518 6.46317 7.32054 6.46415L10.2803 6.46514L9.16527 7.57151C8.21559 8.51379 8.04397 8.69434 8.00797 8.78891C7.89175 9.09412 8.11414 9.43066 8.44981 9.45757C8.54808 9.46544 8.59144 9.45525 8.6924 9.40061C8.86156 9.30907 11.8967 6.30776 11.9592 6.17024C12.0136 6.05055 12.0136 5.89142 11.9592 5.77173C11.8975 5.63585 8.86147 2.63268 8.69559 2.54344C8.53777 2.45851 8.41424 2.45881 8.25025 2.54447Z" fill="white"/>
</svg>
