<svg width="41" height="40" viewBox="0 0 41 40" fill="none" xmlns="http://www.w3.org/2000/svg">
<ellipse cx="20.5" cy="20" rx="20.5" ry="20" fill="#272A2D"/>
<path fill-rule="evenodd" clip-rule="evenodd" d="M17.2118 13.0169C16.908 13.0696 16.3396 13.2752 15.9765 13.4637C15.4525 13.7357 14.7283 14.4595 14.4561 14.9832C14.3463 15.1944 14.1988 15.5401 14.1283 15.7514L14 16.1355V20.0039V23.8723L14.1283 24.2564C14.3598 24.9501 14.6195 25.3725 15.124 25.8767C15.6284 26.3809 16.0511 26.6404 16.7451 26.8718L17.1294 27H21H24.8706L25.2549 26.8718C25.9489 26.6404 26.3716 26.3809 26.876 25.8767C27.3805 25.3725 27.6402 24.9501 27.8717 24.2564L28 23.8723V20.0039V16.1355L27.8717 15.7514C27.6402 15.0577 27.3805 14.6353 26.876 14.1311C26.384 13.6393 25.9778 13.386 25.2824 13.1372L24.9255 13.0095L21.1373 13.0014C19.0537 12.9969 17.2873 13.0039 17.2118 13.0169ZM24.6895 14.3029C25.6691 14.5064 26.5005 15.3373 26.7042 16.3165C26.7445 16.5101 26.7647 17.743 26.7647 20.0039C26.7647 22.2648 26.7445 23.4977 26.7042 23.6913C26.5005 24.6704 25.6691 25.5014 24.6895 25.7049C24.2874 25.7885 17.7126 25.7885 17.3105 25.7049C16.3309 25.5014 15.4995 24.6704 15.2958 23.6913C15.2555 23.4977 15.2353 22.2648 15.2353 20.0039C15.2353 17.743 15.2555 16.5101 15.2958 16.3165C15.4939 15.3641 16.2827 14.5501 17.2302 14.3205C17.6096 14.2285 24.2561 14.2128 24.6895 14.3029ZM24.3155 15.4443C23.5722 15.8973 23.8001 17.0412 24.6527 17.1372C24.9633 17.1722 25.1256 17.1281 25.335 16.952C26.0084 16.3857 25.6308 15.3393 24.7533 15.34C24.588 15.3401 24.4212 15.3799 24.3155 15.4443ZM20.3961 16.4167C19.9761 16.4977 19.3529 16.7545 18.9939 16.9945C18.3193 17.4454 17.8358 18.0723 17.5545 18.8606C17.4267 19.2191 17.4109 19.3442 17.4109 20.0039C17.4109 20.6636 17.4267 20.7887 17.5545 21.1471C17.7601 21.7233 18.0076 22.1125 18.4489 22.5535C18.8902 22.9946 19.2796 23.242 19.8561 23.4475C20.2147 23.5753 20.3399 23.5909 21 23.5909C21.6601 23.5909 21.7853 23.5753 22.1439 23.4475C22.7204 23.242 23.1098 22.9946 23.5511 22.5535C23.9924 22.1125 24.2399 21.7233 24.4455 21.1471C24.5733 20.7887 24.5891 20.6636 24.5891 20.0039C24.5891 19.3442 24.5733 19.2191 24.4455 18.8606C24.1644 18.0728 23.6807 17.4454 23.0075 16.9954C22.4148 16.5992 21.8835 16.4326 21.1373 16.4092C20.8051 16.3988 20.4716 16.4021 20.3961 16.4167ZM21.652 17.7478C22.1027 17.888 22.4101 18.0771 22.7125 18.4002C23.4135 19.1493 23.5518 20.1875 23.0751 21.1228C22.9283 21.411 22.5116 21.8477 22.2215 22.0177C21.2457 22.5892 20.0498 22.4221 19.2875 21.6076C18.4268 20.6879 18.4268 19.3199 19.2875 18.4002C19.8992 17.7467 20.8261 17.4909 21.652 17.7478Z" fill="#707882"/>
</svg>
