<svg width="39" height="38" viewBox="0 0 39 38" fill="none" xmlns="http://www.w3.org/2000/svg">
<ellipse cx="19.5" cy="19" rx="19.5" ry="19" fill="#272A2D"/>
<path fill-rule="evenodd" clip-rule="evenodd" d="M13.2397 10.0657C11.9762 10.4611 11.5791 12.2405 12.5156 13.3101C13.3864 14.3046 14.8733 13.8679 15.2709 12.5009C15.6785 11.0993 14.49 9.67444 13.2397 10.0657ZM21.7326 15.1297C21.504 15.1895 21.1537 15.3328 20.9542 15.4482C20.5538 15.68 19.8986 16.3455 19.8155 16.605C19.7807 16.7136 19.7505 16.515 19.7282 16.0315L19.6941 15.2919H18.3307H16.9673L16.9497 20.6459L16.9322 26L18.3814 25.979L19.8305 25.958L19.8646 22.6881C19.898 19.4821 19.9017 19.4106 20.0554 19.0298C20.3614 18.2717 20.7629 17.9824 21.5133 17.9796C22.2735 17.9767 22.6151 18.2284 22.8779 18.9848C23.0229 19.4025 23.0293 19.5355 23.0543 22.6686L23.0802 25.919H24.5401H26L25.9989 22.9411C25.9975 18.9071 25.9125 17.8795 25.4951 16.849C25.1723 16.0521 24.5261 15.4513 23.7265 15.2041C23.1931 15.0393 22.218 15.0029 21.7326 15.1297ZM12.2293 20.6249V26L13.678 25.979L15.1266 25.958V20.6249V15.2919L13.678 15.2709L12.2293 15.2498V20.6249Z" fill="#707882"/>
</svg>
