<svg width="16" height="17" viewBox="0 0 16 17" fill="none" xmlns="http://www.w3.org/2000/svg">
<path fill-rule="evenodd" clip-rule="evenodd" d="M10.5539 0.545873C10.1739 0.685761 9.9511 0.986294 9.89121 1.43994C9.87874 1.5345 9.8582 1.63084 9.84557 1.65404C9.83297 1.67723 9.72994 1.73531 9.61662 1.78314L9.41062 1.87004L9.16635 1.70643C8.86782 1.50649 8.76798 1.4711 8.50321 1.47151C8.19802 1.47195 8.02634 1.56417 7.67307 1.91746C7.30583 2.28468 7.20789 2.4627 7.20492 2.76848C7.20239 3.02488 7.23837 3.125 7.44303 3.43135C7.5258 3.55523 7.59351 3.66996 7.59351 3.68634C7.59351 3.70269 7.5534 3.8055 7.50436 3.91479L7.4152 4.11347L7.12233 4.16887C6.71161 4.24649 6.47716 4.40157 6.3247 4.69635C6.18838 4.95999 6.19647 5.81198 6.33792 6.08613C6.47422 6.35028 6.75206 6.5374 7.09504 6.59604C7.20586 6.61502 7.32583 6.6369 7.36162 6.64472C7.40811 6.65484 7.452 6.72174 7.51527 6.87895L7.60386 7.09898L7.45916 7.3108C7.25331 7.61205 7.20773 7.73425 7.20617 7.98889C7.20426 8.3039 7.28419 8.45013 7.67157 8.84013C8.01014 9.18099 8.14975 9.26674 8.42543 9.30322C8.6491 9.33279 8.8737 9.26008 9.16598 9.06345L9.40703 8.90131L9.62634 8.98958C9.78296 9.05264 9.84973 9.09649 9.85986 9.14295C9.86767 9.17874 9.88955 9.29859 9.90846 9.40925C9.95098 9.6578 10.0518 9.85999 10.2088 10.0114C10.3945 10.1905 10.5768 10.256 10.9469 10.2766C11.8385 10.3262 12.2322 10.0621 12.3471 9.33741L12.386 9.09165L12.5872 9.00137C12.6979 8.9517 12.8038 8.91106 12.8225 8.91106C12.8412 8.91106 12.9559 8.97893 13.0775 9.06189C13.3751 9.26502 13.4781 9.30219 13.7361 9.29965C14.0419 9.29668 14.2199 9.19874 14.5871 8.8315C14.9404 8.47824 15.0326 8.30656 15.0331 8.00137C15.0335 7.73659 14.9981 7.63675 14.7981 7.33822L14.6345 7.09395L14.7223 6.88495C14.8191 6.65434 14.8083 6.66125 15.197 6.5811C15.4919 6.5203 15.6963 6.3926 15.8379 6.18072C15.9865 5.95844 16.0092 5.83343 15.9973 5.30279C15.9872 4.84811 15.9836 4.82576 15.8939 4.66396C15.727 4.36249 15.4467 4.20006 14.9964 4.1438L14.8196 4.12173L14.727 3.89431L14.6343 3.6669L14.7748 3.46777C14.9882 3.16533 15.0319 3.05123 15.0327 2.79452C15.0337 2.46254 14.9655 2.33297 14.5873 1.94869C14.196 1.551 14.0493 1.47089 13.7146 1.47189C13.4555 1.47267 13.3496 1.51265 13.0335 1.72909L12.831 1.86767L12.6066 1.77404L12.3823 1.68039L12.3605 1.50587C12.3045 1.05797 12.1415 0.777322 11.8406 0.610644C11.6765 0.519771 11.6622 0.517614 11.1728 0.509987C10.8055 0.504266 10.6411 0.5138 10.5539 0.545873ZM11.4679 1.35954C11.4883 1.38411 11.5322 1.55644 11.5655 1.74247C11.6619 2.28139 11.6882 2.31781 12.0793 2.45564C12.2169 2.50409 12.424 2.59077 12.5396 2.64829C12.8641 2.80969 12.9324 2.79865 13.3433 2.51841C13.5324 2.38946 13.7055 2.28396 13.728 2.28396C13.7803 2.28396 14.2206 2.72566 14.2206 2.77811C14.2206 2.79978 14.1151 2.97221 13.9862 3.16127C13.7094 3.56702 13.6957 3.64395 13.8464 3.94261C13.8985 4.04583 13.9849 4.25289 14.0384 4.40282C14.1861 4.8167 14.2181 4.8408 14.7491 4.93777C14.9443 4.97343 15.1232 5.01861 15.1468 5.03817C15.2082 5.08916 15.2072 5.66925 15.1456 5.73089C15.1213 5.75515 14.949 5.79973 14.7627 5.82996C14.2332 5.9158 14.1846 5.95034 14.0522 6.33443C14.0112 6.4535 13.9268 6.65603 13.8647 6.78451C13.6928 7.1399 13.7022 7.20383 13.9862 7.60661C14.1151 7.78955 14.2206 7.95779 14.2206 7.98045C14.2206 8.038 13.7766 8.47342 13.7179 8.47342C13.6915 8.47342 13.5257 8.37348 13.3494 8.25138C12.9302 7.96098 12.8884 7.95554 12.4839 8.1385C12.3129 8.21581 12.1 8.30259 12.0108 8.33128C11.8151 8.39421 11.7089 8.47292 11.6622 8.58958C11.6431 8.63744 11.5993 8.83576 11.5648 9.03025C11.5304 9.22475 11.4941 9.39706 11.4842 9.41319C11.4742 9.42929 11.3118 9.44248 11.1234 9.44248C10.7176 9.44248 10.7521 9.47968 10.6593 8.94232C10.6018 8.6095 10.5893 8.57561 10.4915 8.48549C10.4305 8.42928 10.2945 8.35804 10.1697 8.31697C10.0509 8.2778 9.84491 8.19149 9.71206 8.12515C9.3572 7.94794 9.29699 7.95891 8.84391 8.28314C8.69777 8.38774 8.55041 8.47333 8.51646 8.47336C8.43412 8.47345 8.03112 8.07179 8.03121 7.98974C8.03124 7.95488 8.11683 7.8068 8.22143 7.66066C8.54569 7.20758 8.55663 7.14738 8.37939 6.79251C8.31305 6.65966 8.23393 6.47357 8.20361 6.37901C8.12171 6.12368 8.03253 5.98029 7.92443 5.93011C7.87138 5.90551 7.68026 5.86115 7.49973 5.83155C7.31921 5.80198 7.1469 5.76484 7.1168 5.74906C7.06978 5.72439 7.06209 5.67234 7.06209 5.37944C7.06209 5.19194 7.07528 5.03036 7.09138 5.02042C7.10751 5.01045 7.27982 4.97415 7.47432 4.93974C8.02162 4.84289 8.04981 4.82317 8.18748 4.44089C8.22774 4.32914 8.31452 4.1197 8.38035 3.97543C8.44619 3.8312 8.50005 3.6794 8.50005 3.63814C8.50005 3.54032 8.41912 3.38806 8.20514 3.08333C8.10946 2.94701 8.03115 2.81303 8.03115 2.78558C8.03115 2.72506 8.46848 2.28396 8.52846 2.28396C8.55191 2.28396 8.68811 2.36767 8.83119 2.47002C9.2983 2.80415 9.35923 2.81509 9.73647 2.63282C9.87311 2.5668 10.0623 2.48755 10.1568 2.45667C10.544 2.33025 10.5747 2.28877 10.6721 1.7612C10.7136 1.53672 10.7625 1.35794 10.7867 1.34263C10.8099 1.3279 10.9643 1.31565 11.1299 1.31537C11.353 1.31502 11.4404 1.32643 11.4679 1.35954ZM10.632 3.50378C10.0732 3.65017 9.635 4.01526 9.37583 4.5503C9.22243 4.86696 9.17655 5.10582 9.19458 5.4941C9.21784 5.99488 9.39674 6.40042 9.75045 6.75413C10.1042 7.10783 10.5097 7.28673 11.0105 7.30999C11.3988 7.32803 11.6376 7.28214 11.9543 7.12874C12.9486 6.64709 13.3424 5.50076 12.8548 4.50744C12.6922 4.17621 12.3284 3.81235 11.9971 3.64973C11.5698 3.43998 11.0768 3.38728 10.632 3.50378ZM11.5092 4.33458C12.2425 4.59191 12.4714 5.55568 11.9377 6.13959C11.5135 6.60377 10.779 6.61868 10.3324 6.17213C9.70171 5.5414 10.0348 4.46355 10.9155 4.28565C11.0715 4.25414 11.3439 4.27662 11.5092 4.33458ZM4.8834 4.93783C4.73382 5.0318 4.6914 5.11907 4.62866 5.46209C4.59725 5.63389 4.56233 5.78935 4.55108 5.80754C4.53982 5.82577 4.49203 5.85034 4.44489 5.86219C4.39772 5.87403 4.2562 5.93127 4.13041 5.98938L3.90168 6.09504L3.56723 5.86788C3.18258 5.6066 3.03184 5.55437 2.71112 5.57122C2.36779 5.58926 2.23719 5.66691 1.77645 6.12686C1.32449 6.57804 1.24687 6.70836 1.22368 7.05488C1.20358 7.35547 1.26538 7.52843 1.53528 7.9269L1.75263 8.24782L1.68785 8.3748C1.65222 8.44463 1.59314 8.58333 1.55659 8.68299C1.52002 8.78265 1.48066 8.87464 1.46913 8.88743C1.45759 8.90024 1.2877 8.9396 1.0916 8.97492C0.529831 9.07608 0.275156 9.24301 0.0942865 9.6286C0.0173245 9.79268 0.012448 9.83298 0.0033201 10.382C-0.00540142 10.907 -0.00014976 10.9786 0.0586502 11.1357C0.21148 11.5442 0.48863 11.7545 1.00189 11.8515C1.49711 11.9451 1.45947 11.9195 1.59842 12.2559C1.66588 12.4192 1.72759 12.5677 1.73553 12.5859C1.74344 12.604 1.66979 12.7305 1.57185 12.867C1.27244 13.2843 1.23237 13.3837 1.23224 13.7095C1.23205 14.1227 1.3042 14.2581 1.77535 14.7292C2.24647 15.2004 2.38192 15.2725 2.79511 15.2723C3.12087 15.2722 3.22025 15.2321 3.63754 14.9327C3.77405 14.8348 3.90059 14.7611 3.91872 14.769C3.93688 14.777 4.07833 14.8353 4.23307 14.8987C4.38781 14.9621 4.52651 15.0252 4.54129 15.0388C4.55608 15.0525 4.59547 15.2161 4.62879 15.4025C4.66211 15.5889 4.72241 15.8138 4.7628 15.9023C4.85814 16.1112 5.05455 16.3052 5.27565 16.4088C5.44817 16.4897 5.46649 16.4916 6.0774 16.4916C6.6855 16.4916 6.70735 16.4894 6.87597 16.4103C7.26272 16.2289 7.42518 15.9797 7.53262 15.403C7.59636 15.0609 7.60758 15.0311 7.68348 15.0026C7.72855 14.9857 7.88029 14.9227 8.02065 14.8626L8.27588 14.7534L8.5451 14.9447C8.94678 15.2302 9.05529 15.2722 9.39096 15.272C9.78239 15.2718 9.90712 15.2024 10.394 14.7138C10.8547 14.2516 10.9176 14.139 10.9334 13.7488C10.9437 13.4965 10.9373 13.4608 10.8495 13.2799C10.7972 13.1723 10.6772 12.9773 10.5829 12.8465L10.4114 12.6086L10.4901 12.4401C10.5334 12.3474 10.5967 12.1977 10.6308 12.1074C10.6977 11.93 10.6852 11.9371 11.0321 11.8799C11.4582 11.8097 11.5933 11.7106 11.6184 11.4496C11.6315 11.3124 11.623 11.2855 11.5342 11.1844C11.3716 10.9992 11.3041 10.9918 10.7298 11.0955C10.4434 11.1472 10.1915 11.2099 10.1437 11.2412C10.0442 11.3064 10.0015 11.3852 9.90725 11.6776C9.86845 11.7979 9.76808 12.0391 9.68418 12.2135C9.46632 12.6663 9.46898 12.6884 9.79862 13.1624C10.1179 13.6216 10.1256 13.6352 10.1256 13.743C10.1256 13.8525 9.56892 14.4309 9.43535 14.4603C9.32778 14.4839 9.29468 14.4665 8.83647 14.1455C8.62015 13.994 8.42324 13.8798 8.35669 13.8673C8.26069 13.8493 8.18954 13.8718 7.8796 14.0182C7.67929 14.1128 7.42958 14.2177 7.32471 14.2514C7.04837 14.34 6.94449 14.4016 6.88857 14.5097C6.86131 14.5624 6.80485 14.7977 6.76312 15.0328C6.67406 15.5338 6.64662 15.6118 6.54271 15.6591C6.49791 15.6796 6.2951 15.6945 6.06206 15.6945C5.52864 15.6945 5.52054 15.6882 5.43539 15.2099C5.29278 14.4088 5.2869 14.3985 4.8965 14.2707C4.75511 14.2244 4.47508 14.11 4.27421 14.0165C3.97774 13.8785 3.88943 13.8502 3.80518 13.866C3.74785 13.8767 3.51278 14.0175 3.28005 14.1804C3.04829 14.3426 2.82887 14.4753 2.79249 14.4753C2.70624 14.4753 2.52556 14.3398 2.3073 14.1116C2.09558 13.8901 2.02924 13.7943 2.02924 13.7098C2.02924 13.6747 2.16197 13.4563 2.32418 13.2245C2.48708 12.9918 2.62784 12.7567 2.63859 12.6994C2.65438 12.6151 2.62603 12.5268 2.48805 12.2304C2.39458 12.0295 2.2802 11.7495 2.2339 11.6081C2.10605 11.2177 2.09577 11.2118 1.29464 11.0692C0.81636 10.984 0.810107 10.9759 0.810107 10.4425C0.810107 10.2095 0.825018 10.0067 0.845431 9.96186C0.89329 9.85683 0.971252 9.83004 1.49608 9.73835C2.07226 9.6377 2.11677 9.608 2.23171 9.24735C2.27698 9.10537 2.39148 8.82528 2.4862 8.62497C2.63244 8.31568 2.65526 8.24375 2.63734 8.14841C2.62478 8.08145 2.50365 7.87511 2.33731 7.63737C2.18389 7.41809 2.05066 7.20852 2.04125 7.1717C2.0143 7.0661 2.09636 6.94653 2.39749 6.65253C2.62315 6.43224 2.69583 6.37901 2.77104 6.37901C2.83747 6.37901 2.97533 6.45612 3.24838 6.646C3.45957 6.79283 3.65757 6.92646 3.6884 6.94297C3.80612 7.00596 3.97836 6.97379 4.26289 6.83565C4.41841 6.76016 4.67227 6.65387 4.82701 6.59948C5.30219 6.43246 5.29556 6.44215 5.4187 5.73171C5.49241 5.30629 5.49644 5.24552 5.45721 5.1534C5.35411 4.91132 5.086 4.8106 4.8834 4.93783ZM5.71982 7.72431C4.58037 7.8808 3.64523 8.76092 3.4159 9.89262C3.33979 10.2682 3.3697 10.8733 3.48167 11.2243C3.75573 12.0833 4.42185 12.7493 5.28028 13.0228C5.6006 13.1248 6.20069 13.1624 6.5469 13.1021C7.39001 12.9553 8.11371 12.416 8.50061 11.6463C8.68933 11.2709 8.78098 10.9279 8.7902 10.5628C8.79805 10.251 8.75382 10.1572 8.55138 10.0566C8.30793 9.93567 8.02065 10.1116 7.98645 10.4027C7.90402 11.1045 7.78438 11.3863 7.41305 11.7535C7.13583 12.0275 6.89551 12.1666 6.5433 12.2567C5.88931 12.4239 5.23317 12.241 4.74839 11.7562C4.26361 11.2714 4.08068 10.6153 4.24792 9.96127C4.33801 9.60906 4.47705 9.36874 4.75111 9.09152C5.11823 8.72019 5.40003 8.60056 6.10188 8.51812C6.39294 8.48392 6.5689 8.19665 6.44793 7.95319C6.33355 7.723 6.1498 7.66526 5.71982 7.72431Z" fill="#82859E"/>
</svg>
