<svg width="41" height="40" viewBox="0 0 41 40" fill="none" xmlns="http://www.w3.org/2000/svg">
<ellipse cx="20.5" cy="20" rx="20.5" ry="20" fill="#272A2D"/>
<path fill-rule="evenodd" clip-rule="evenodd" d="M26.4964 15.1353C26.2557 15.2122 23.4506 16.1994 20.2628 17.3291C14.8405 19.2508 14.4517 19.3965 14.2333 19.5902C14.0359 19.7652 13.9998 19.8279 14 19.9962C14.0004 20.4616 14.2986 20.6442 15.6135 20.9842L16.4342 21.1963L20.513 19.2621C22.7562 18.1982 24.6529 17.3278 24.7278 17.3278C24.9046 17.3278 25.1018 17.5249 25.1018 17.7016C25.1018 17.8511 25.1993 17.7502 22.1505 20.7534C21.3004 21.5908 20.5719 22.3215 20.5317 22.3774C20.4916 22.4332 20.4428 22.5714 20.4233 22.6846L20.3879 22.8903L22.2813 24.3086C23.3226 25.0886 24.3033 25.7916 24.4604 25.8708C24.703 25.9931 24.794 26.0118 25.0615 25.9945C25.4203 25.9712 25.5956 25.8735 25.8299 25.5662C25.9697 25.3828 26.0754 24.9449 26.9917 20.7498C27.546 18.2118 27.9998 16.0374 28 15.9179C28.0006 15.5157 27.7437 15.1733 27.3496 15.051C27.0846 14.9688 26.9875 14.9784 26.4964 15.1353ZM20.0156 20.3246C18.5568 21.0186 17.3561 21.6175 17.3474 21.6556C17.3292 21.7352 18.5014 24.8713 18.6545 25.1524C18.7104 25.2552 18.78 25.3529 18.8091 25.3696C18.8705 25.4049 18.8555 25.4542 19.3571 23.57C19.5689 22.7745 19.7606 22.0856 19.7832 22.0392C19.8057 21.9927 20.3654 21.4218 21.027 20.7705C22.7556 19.0683 22.7709 19.0529 22.717 19.0581C22.6901 19.0607 21.4745 19.6306 20.0156 20.3246ZM19.8857 24.6601C19.7466 25.176 19.6328 25.6213 19.6328 25.6497C19.6328 25.7242 19.8244 25.7133 20.0497 25.626C20.2672 25.5416 20.4117 25.4355 20.9884 24.9361L21.3869 24.5911L20.8049 24.1567C20.4848 23.9177 20.2039 23.7222 20.1807 23.7222C20.1576 23.7222 20.0248 24.1443 19.8857 24.6601Z" fill="#707882"/>
</svg>
