<svg width="26" height="26" viewBox="0 0 26 26" fill="none" xmlns="http://www.w3.org/2000/svg">
<rect width="26" height="26" rx="13" fill="#5EB083"/>
<path d="M15.401 14.366C15.401 15.026 15.1553 15.576 14.664 16.016C14.18 16.456 13.5787 16.676 12.86 16.676C12.2953 16.676 11.7857 16.5073 11.331 16.17C10.869 15.818 10.5573 15.3597 10.396 14.795L11.32 14.41C11.4373 14.828 11.628 15.1507 11.892 15.378C12.1633 15.598 12.486 15.708 12.86 15.708C13.2707 15.708 13.6263 15.5797 13.927 15.323C14.2203 15.059 14.367 14.74 14.367 14.366C14.367 13.992 14.213 13.6767 13.905 13.42C13.6043 13.1633 13.2413 13.035 12.816 13.035H12.167V12.089H12.739C13.1423 12.089 13.4723 11.979 13.729 11.759C13.9857 11.5317 14.114 11.2383 14.114 10.879C14.114 10.549 13.993 10.2813 13.751 10.076C13.509 9.87067 13.19 9.768 12.794 9.768C12.156 9.768 11.7197 10.0943 11.485 10.747L10.55 10.351C10.7187 9.889 11.001 9.515 11.397 9.229C11.793 8.943 12.2587 8.8 12.794 8.8C13.4613 8.8 14.0223 8.998 14.477 9.394C14.9243 9.77533 15.148 10.2703 15.148 10.879C15.148 11.605 14.8107 12.144 14.136 12.496V12.54C14.532 12.7087 14.84 12.9543 15.06 13.277C15.2873 13.5997 15.401 13.9627 15.401 14.366Z" fill="white"/>
</svg>
