<svg width="30" height="30" viewBox="0 0 30 30" fill="none" xmlns="http://www.w3.org/2000/svg">
<rect width="30" height="30" rx="15" fill="#FFBB8A"/>
<path d="M18.116 19.092V20.5H11.14V19.028L13.972 16.164C14.9213 15.1933 15.5773 14.468 15.94 13.988C16.3027 13.4973 16.484 12.9853 16.484 12.452C16.484 11.972 16.2973 11.5613 15.924 11.22C15.5507 10.8787 15.0707 10.708 14.484 10.708C13.9827 10.708 13.5507 10.8573 13.188 11.156C12.8253 11.4547 12.5907 11.8173 12.484 12.244L11.14 11.7C11.3533 11.028 11.764 10.4627 12.372 10.004C12.98 9.53467 13.6947 9.3 14.516 9.3C15.508 9.3 16.3347 9.604 16.996 10.212C17.6573 10.82 17.988 11.5667 17.988 12.452C17.988 13.508 17.4067 14.6493 16.244 15.876L13.044 19.092H18.116Z" fill="white"/>
</svg>
