<svg width="16" height="19" viewBox="0 0 16 19" fill="none" xmlns="http://www.w3.org/2000/svg">
<path fill-rule="evenodd" clip-rule="evenodd" d="M1.12151 0.551593C0.745232 0.655393 0.378027 0.941372 0.19919 1.27C-0.0108727 1.65598 9.81266e-05 1.28417 9.81266e-05 8.00789C9.81266e-05 13.4584 0.00635703 14.1882 0.0546707 14.3738C0.155131 14.7596 0.393253 15.0768 0.740696 15.2879C1.12081 15.5188 1.02604 15.5138 5.0687 15.5145L8.71325 15.5151L8.75288 15.7429C8.94944 16.8715 9.68846 17.8053 10.7341 18.2463C11.2962 18.4834 11.2465 18.4788 13.4134 18.494C15.5049 18.5087 15.4963 18.5093 15.5733 18.3402C15.6011 18.2791 15.6124 17.1891 15.6124 14.545C15.6124 10.4812 15.6164 10.569 15.4032 10.059C15.2062 9.58782 15.0475 9.40768 13.2483 7.61231C12.2938 6.65982 11.4938 5.88054 11.4704 5.88054C11.4377 5.88054 11.428 5.30226 11.428 3.3477C11.428 0.643227 11.4271 0.629443 11.2575 0.538618C11.1468 0.479368 1.3379 0.491921 1.12151 0.551593ZM10.7951 6.73205V12.3657L9.6259 11.204C8.56075 10.1457 8.43642 10.0334 8.22818 9.94153C7.93573 9.81255 7.49697 9.78101 7.19925 9.86758C6.9376 9.94364 6.58946 10.183 6.42644 10.399C6.06483 10.878 6.022 11.5465 6.31951 12.0692C6.36966 12.1573 6.88191 12.7028 7.47524 13.2999C8.55829 14.3898 8.68259 14.5425 8.68452 14.7855L8.6853 14.8822L4.98442 14.8814C1.47623 14.8807 1.27619 14.8773 1.14211 14.8164C0.956947 14.7323 0.780184 14.5524 0.688866 14.3552L0.615446 14.1965V8.00789V1.81925L0.695899 1.64473C0.740169 1.54874 0.803461 1.43987 0.83655 1.40281C0.930575 1.29757 1.14802 1.1706 1.29258 1.13649C1.36498 1.11944 3.53265 1.10389 6.10963 1.10193L10.7951 1.09841V6.73205ZM1.86351 1.72902C1.57265 1.81752 1.33358 2.05311 1.25035 2.3334C1.17376 2.59128 1.17148 3.79789 1.24732 3.94452C1.3405 4.12473 1.58158 4.1499 1.7275 3.99469C1.80859 3.90844 1.81126 3.88664 1.82047 3.2318C1.82568 2.86101 1.83813 2.52102 1.84808 2.47623C1.88159 2.3258 2.04277 2.29394 2.77071 2.29394C3.4138 2.29394 3.43592 2.29155 3.50502 2.21483C3.54419 2.17133 3.58635 2.10712 3.59869 2.07221C3.62893 1.9868 3.53933 1.78127 3.45132 1.73415C3.36989 1.69058 2.00445 1.68615 1.86351 1.72902ZM5.08112 2.66241C3.99392 2.90163 3.11963 3.72366 2.81104 4.79679C2.70461 5.16692 2.68091 5.77935 2.75812 6.16389C3.06713 7.70254 4.45613 8.73798 6.00438 8.58382C7.54005 8.43093 8.70003 7.14661 8.70003 5.59924C8.70003 4.17902 7.7037 2.95004 6.32208 2.66611C5.99619 2.59912 5.37712 2.59729 5.08112 2.66241ZM5.41516 4.29822V5.28278H4.97078H4.52639L4.54931 5.05897C4.60937 4.47266 4.86803 3.82859 5.17289 3.50625C5.27307 3.40034 5.36857 3.31366 5.3851 3.31366C5.40162 3.31366 5.41516 3.75671 5.41516 4.29822ZM6.33583 3.60836C6.61368 3.98917 6.77913 4.45958 6.8722 5.13334L6.89284 5.28278H6.45289H6.01293V4.29583V3.30888L6.12155 3.3862C6.18129 3.42875 6.2777 3.52872 6.33583 3.60836ZM4.21878 3.90264C4.10197 4.18134 3.98309 4.61866 3.95482 4.87366C3.94381 4.97296 3.92697 5.10566 3.9174 5.1685L3.89996 5.28278H3.61866H3.33736L3.36106 5.15092C3.4393 4.7156 3.66828 4.28672 4.00865 3.9378C4.15489 3.7879 4.28436 3.66529 4.29642 3.66529C4.30845 3.66529 4.27353 3.77208 4.21878 3.90264ZM7.51835 4.04438C7.77508 4.35117 7.94206 4.68589 8.03303 5.07595L8.08131 5.28278H7.79058H7.49986L7.47718 5.0385C7.4417 4.65709 7.28322 4.05282 7.15203 3.79891C7.12506 3.74666 7.10297 3.69391 7.10297 3.68168C7.10297 3.63779 7.38217 3.88154 7.51835 4.04438ZM3.91916 6.08273C3.96621 6.46977 4.08105 6.95016 4.19343 7.23002C4.3338 7.57964 4.30884 7.58168 3.98917 7.24651C3.65643 6.89763 3.43778 6.48285 3.35716 6.04757L3.33272 5.91571H3.61578H3.89884L3.91916 6.08273ZM5.41516 6.90026C5.41516 7.50788 5.40219 7.88482 5.3813 7.88482C5.32089 7.88482 5.06118 7.59114 4.94025 7.38611C4.73726 7.04197 4.53609 6.36066 4.53609 6.01733V5.91571H4.97563H5.41516V6.90026ZM6.87185 6.06515C6.79414 6.61872 6.71168 6.91225 6.53218 7.27443C6.41927 7.50225 6.19314 7.79083 6.08016 7.85131C6.01469 7.88633 6.01293 7.86126 6.01293 6.90149V5.91571H6.45289H6.89284L6.87185 6.06515ZM8.05022 6.06673C7.9671 6.51171 7.66874 7.0431 7.32622 7.35611C7.21792 7.4551 7.12319 7.52996 7.1157 7.5225C7.10825 7.51501 7.13501 7.4346 7.17516 7.34377C7.30326 7.05417 7.42088 6.61179 7.46367 6.25854L7.5052 5.91571H7.79185H8.07846L8.05022 6.06673ZM14.4628 9.70495C14.6797 9.95658 14.8392 10.245 14.9351 10.5588C14.9879 10.7313 14.9949 11.1103 15.0056 14.3284L15.0174 17.9062H13.4943C12.6388 17.9062 11.8418 17.89 11.6761 17.8692C11.0495 17.7906 10.5728 17.5518 10.1083 17.0835C9.86933 16.8426 9.75498 16.6939 9.64594 16.4821C9.41151 16.027 9.35202 15.7848 9.3177 15.1459C9.27016 14.2617 9.23869 14.2028 8.31342 13.2654L7.59789 12.5405L8.22962 11.9095L8.86132 11.2786L10.3644 12.779C11.2342 13.6473 11.8972 14.2822 11.9379 14.286C12.1528 14.306 12.3071 14.1861 12.3071 13.999C12.3071 13.9017 12.2465 13.825 11.8675 13.4419L11.428 12.9977V9.84033V6.68299L12.8433 8.07551C13.6217 8.84142 14.3505 9.57464 14.4628 9.70495ZM8.04006 10.5566C8.1555 10.6143 8.28789 10.7018 8.33423 10.7512L8.41848 10.8408L7.78812 11.472L7.15772 12.1031L7.03813 11.9894C6.74808 11.7138 6.671 11.2896 6.84804 10.9432C7.07931 10.4909 7.58217 10.3278 8.04006 10.5566ZM1.37215 11.9385C1.21458 12.0182 1.19672 12.1086 1.19616 12.8276C1.19542 13.762 1.26849 13.9634 1.69297 14.1971C1.88022 14.3002 1.88528 14.3009 2.56396 14.314C3.37115 14.3297 3.49623 14.3061 3.57232 14.124C3.61585 14.0198 3.61599 13.9868 3.57337 13.8848C3.5002 13.7097 3.39155 13.6867 2.63818 13.6867C1.76995 13.6867 1.82863 13.7442 1.82835 12.8933C1.82814 12.1708 1.80068 12.0226 1.65285 11.9462C1.52943 11.8823 1.48555 11.8811 1.37215 11.9385Z" fill="#32333D"/>
</svg>
