<svg width="18" height="18" viewBox="0 0 18 18" fill="none" xmlns="http://www.w3.org/2000/svg">
<path fill-rule="evenodd" clip-rule="evenodd" d="M8.26057 0.0112695C7.33076 0.11849 6.58422 0.282826 5.91896 0.526705C3.10262 1.55916 0.977109 3.9157 0.257126 6.80398C0.0500084 7.63481 0.00476074 8.02936 0.00476074 9.00474C0.00476074 9.98011 0.0500084 10.3747 0.257126 11.2055C1.05746 14.4161 3.58865 16.9473 6.79926 17.7476C7.63009 17.9548 8.02465 18 9.00002 18C9.9754 18 10.37 17.9548 11.2008 17.7476C14.4114 16.9473 16.9426 14.4161 17.7429 11.2055C17.95 10.3747 17.9953 9.98011 17.9953 9.00474C17.9953 8.02936 17.95 7.63481 17.7429 6.80398C17.0228 3.91492 14.9013 1.56286 12.0811 0.526811C11.6243 0.35899 10.8221 0.155991 10.3029 0.0768345C9.95174 0.0232768 8.54723 -0.0217948 8.26057 0.0112695ZM9.65145 1.43493C10.4764 1.51504 11.1914 1.69149 11.9353 1.99847C13.723 2.73616 15.2686 4.2818 16.0063 6.06942C16.7944 7.97932 16.7944 10.0302 16.0063 11.9401C15.2686 13.7277 13.723 15.2733 11.9353 16.011C10.0254 16.7992 7.97461 16.7992 6.0647 16.011C4.27709 15.2733 2.73145 13.7277 1.99375 11.9401C1.2056 10.0302 1.2056 7.97932 1.99375 6.06942C2.73145 4.2818 4.27709 2.73616 6.0647 1.99847C7.22431 1.51993 8.48589 1.32173 9.65145 1.43493ZM12.2043 5.99677C12.1255 6.03051 11.3041 6.82602 9.92473 8.20447L7.76841 10.3594L6.86127 9.45517C5.91868 8.51553 5.781 8.40856 5.51212 8.4069C5.32549 8.40574 5.03267 8.5661 4.92541 8.72822C4.8171 8.89188 4.78333 9.15037 4.84495 9.34394C4.87904 9.45109 5.14806 9.74155 6.10787 10.7075C6.91318 11.518 7.3753 11.9573 7.46829 12.0008C7.65161 12.0865 7.88552 12.0857 8.06458 11.9986C8.26835 11.8995 13.0617 7.09898 13.136 6.91954C13.2435 6.66017 13.1719 6.30939 12.9744 6.12783C12.7795 5.94871 12.4484 5.89233 12.2043 5.99677Z" fill="white"/>
</svg>
